<?xml version="1.0" encoding="utf-8"?>
<!-- Generator: Adobe Illustrator 22.0.1, SVG Export Plug-In . SVG Version: 6.00 Build 0)  -->
<svg version="1.1" id="Layer_1" xmlns="http://www.w3.org/2000/svg" xmlns:xlink="http://www.w3.org/1999/xlink" x="0px" y="0px"
	 viewBox="0 0 1814.8 1080" style="enable-background:new 0 0 1814.8 1080;" xml:space="preserve">
<g>
	<g>
		<path d="M609.9,808.2c-29.4,0-47.6,21.8-47.6,59.6c0,34.7,16,61.4,47.1,61.4c29.8,0,49.4-24,49.4-62.3
			C658.9,826.4,637.1,808.2,609.9,808.2z"/>
		<path d="M1396.5,909.2c0,12.9,6.2,23.1,23.6,23.1c20.5,0,42.3-14.7,43.6-48c-9.3-1.3-19.6-2.7-28.9-2.7
			C1414.3,881.6,1396.5,887.4,1396.5,909.2z"/>
		<path d="M11.9,605.1v458.8h1603.6V605.1H11.9z M479.6,970.4H395V855.8c0-34.7-13-48-35.6-48c-27.6,0-40.1,19.6-40.1,47.6v70.5H346
			v44.5h-80.2V855.8c0-34.7-13-48-35.6-48c-27.6,0-40.1,19.6-40.1,47.6v70.5h40.1v44.5H105.4v-44.5h26.7V810h-26.7V770h84.6v28.4
			c13.4-21.3,33.3-34.2,61.3-34.2c28.9,0,55.8,13.8,65.6,43.1c11.1-26.7,34.6-43.1,66.2-43.1c36,0,69.7,21.8,69.7,69.4v92.3h26.7
			V970.4z M607.7,973.2c-61.8,0-104.5-37.8-104.5-101.9c0-58.7,35.6-107.2,107.6-107.2c72.1,0,107.2,48.5,107.2,104.5
			C718,932.7,671.8,973.2,607.7,973.2z M931.2,970.4H756l-5.8-31.9L860.5,810h-62.7l-8.9,32l-41.4-3.1l7.1-69h176.1l4.5,29.7
			L824,925.9H889l9.3-31.5l45.4,5.1L931.2,970.4z M1045.3,970.4h-57.9v-75.7h57.9V970.4z M1045.3,841.2h-57.9V770h57.9V841.2z
			 M1083.3,970.4L1170,663h56.5l-86.7,307.4H1083.3z M1199.8,970.4l86.7-307.4h56.5l-86.7,307.4H1199.8z M1507.7,973.2
			c-26.7,0-41.4-15.6-44-40c-11.6,20.5-32,40-64.5,40c-28.9,0-61.8-15.6-61.8-57.4c0-49.4,47.8-60.9,93.6-60.9
			c11.1,0,24.2,0.4,33.1,1.8V850c0-20.5-0.6-44.9-33.1-44.9c-12,0-21.4,0.9-30.8,5.8l-6.5,22.6l-45.8-4.9l7.8-46.1
			c35.1-14.2,53.4-18.2,86.3-18.2c43.1,0,80.1,22.2,80.1,68.1v87.2c0,11.6,4,15.6,13.3,15.6c2.7,0,5.1-0.4,8.2-1.3l0.3,30.2
			C1533.2,969.6,1520.2,973.2,1507.7,973.2z"/>
	</g>
	<g>
		<path d="M246.6,508.3H11.9v-68h53.7V111.2H11.9v-68h231.8c88,0,140.9,43.6,140.9,110.2c0,48.7-31.5,88.7-83,98v2.9
			c66.5,10,100.2,57.2,100.2,118C401.8,446.8,351.7,508.3,246.6,508.3z M224.4,111.2H145v127.4h74.4c54.4,0,80.1-26.5,80.1-65.1
			C299.5,124.8,268,111.2,224.4,111.2z M238,300.8h-93v139.5h82.3c58,0,89.4-22.2,89.4-70.8C316.7,323.7,288.8,300.8,238,300.8z"/>
		<path d="M700.2,199.9l13.6,100.2l-59.4,7.2l-12.2-55.1c-8.6-4.3-15.7-7.2-24.3-7.2c-27.2,0-49.4,23.6-49.4,62.2v142.4h63.7v58.7
			H444v-58.7H492V246.4h-50.1V187h120.9v60.1c11.4-36.5,36.5-65.1,77.3-65.1C659.4,182,680.1,187,700.2,199.9z"/>
		<path d="M913.4,180.6c71.5,0,123.1,35.8,123.1,108.7v144.5c0,20.7,7.2,28.6,23.6,28.6c5,0,11.4-1.4,16.5-2.9l0.7,42.2
			c-15,8.6-33.6,13.6-51.5,13.6c-40.8,0-63-25-65.8-63.7v-1.4c-19.3,33.6-53.7,65.1-105.2,65.1c-45.1,0-98.7-23.6-98.7-91.6
			c0-79.4,76.6-97.3,149.5-97.3c18.6,0,37.9,0.7,54.4,2.9v-17.9c0-37.9-6.4-74.4-60.1-74.4c-20,0-37.2,2.1-53.7,10.7l-12.9,49.4
			l-61.5-6.4l13.6-80.1C833.2,187.8,864.7,180.6,913.4,180.6z M959.9,369.5c-16.5-2.1-33.6-4.3-51.5-4.3c-37.9,0-73.7,10-73.7,50.1
			c0,28.6,18.6,43.6,46.5,43.6c36.5,0,75.1-26.5,78.7-78V369.5z"/>
		<path d="M1243.9,515.4c-45.8,0-94.4-10.7-131.6-31.5l11.4-83l60.1,5.7l-0.7,41.5c17.9,7.2,40.8,10,56.5,10c38.6,0,73-13.6,73-41.5
			c0-67.3-196-12.2-196-138.8c0-74.4,69.4-97.3,132.4-97.3c43.6,0,82.3,10.7,117.3,29.3l7.9,79.4l-60.1,7.2l-6.4-47.9
			c-18.6-7.2-37.2-10.7-56.5-10.7c-30,0-52.9,11.4-52.9,37.2c0,65.8,191.7,11.4,191.7,137.4C1389.9,479.7,1329.1,515.4,1243.9,515.4
			z"/>
		<path d="M1434.9,508.3v-58.7h47.9V246.4h-50.8V187h126.6v262.6h47.9v58.7H1434.9z M1478.6,36.1h78v84.4h-78V36.1z"/>
		<path d="M1633.8,508.3v-58.7h47.9V74.7H1631V16.1h126.6v433.6h47.9v58.7H1633.8z"/>
	</g>
</g>
</svg>
